<?xml version="1.0" encoding="UTF-8" standalone="no"?><svg width="300" height="400" viewBox="0,0 300,400" xmlns="http://www.w3.org/2000/svg"><g transform="rotate(-90 200,200)"><rect x="0" y="0" width="400" height="300" style="fill:#ffffff" /><text x="200" y="16.2" font-size="14" fill="black" text-anchor="middle">7.06</text><text x="100" y="96.2" font-size="14" fill="black" text-anchor="middle">2.23</text><text x="300" y="96.2" font-size="14" fill="black" text-anchor="middle">9.34</text><text x="66.7" y="176.2" font-size="14" fill="black" text-anchor="middle">0</text><text x="200" y="176.2" font-size="14" fill="black" text-anchor="middle">3.25</text><text x="333.3" y="176.2" font-size="14" fill="black" text-anchor="middle">12.21</text><text x="50" y="256.2" font-size="14" fill="black" text-anchor="middle">0</text><text x="150" y="256.2" font-size="14" fill="black" text-anchor="middle">0</text><text x="250" y="256.2" font-size="14" fill="black" text-anchor="middle">4.74</text><text x="350" y="256.2" font-size="14" fill="black" text-anchor="middle">015.76</text><line x1="187.5" y1="22" x2="112.5" y2="82" style="stroke:black; stroke-width:1" /><line x1="212.5" y1="22" x2="287.5" y2="82" style="stroke:black; stroke-width:1" /><line x1="95.8" y1="102" x2="70.8" y2="162" style="stroke:black; stroke-width:1" /><line x1="112.5" y1="102" x2="187.5" y2="162" style="stroke:black; stroke-width:1" /><line x1="287.5" y1="102" x2="212.5" y2="162" style="stroke:black; stroke-width:1" /><line x1="304.2" y1="102" x2="329.2" y2="162" style="stroke:black; stroke-width:1" /><line x1="64.6" y1="182" x2="52.1" y2="242" style="stroke:black; stroke-width:1" /><line x1="77.1" y1="182" x2="139.6" y2="242" style="stroke:black; stroke-width:1" /><line x1="193.8" y1="182" x2="156.3" y2="242" style="stroke:black; stroke-width:1" /><line x1="206.3" y1="182" x2="243.8" y2="242" style="stroke:black; stroke-width:1" /><line x1="322.9" y1="182" x2="260.4" y2="242" style="stroke:black; stroke-width:1" /><line x1="335.4" y1="182" x2="347.9" y2="242" style="stroke:black; stroke-width:1" /></g></svg>